<svg xmlns="http://www.w3.org/2000/svg" viewBox="0 0 800 540">
<defs><linearGradient id="bg" x2="1" y2="1"><stop stop-color="#17364a"/><stop offset="1" stop-color="#07131d"/></linearGradient><linearGradient id="stand" x2="0" y2="1"><stop stop-color="#d7b46a"/><stop offset="1" stop-color="#755729"/></linearGradient><filter id="sh"><feDropShadow dx="0" dy="18" stdDeviation="16" flood-opacity=".35"/></filter></defs>
<rect width="800" height="540" rx="32" fill="url(#bg)"/><g opacity=".16" stroke="#9cc4d5"><path d="M0 90h800M0 180h800M0 270h800M0 360h800M0 450h800"/><path d="M100 0v540M200 0v540M300 0v540M400 0v540M500 0v540M600 0v540M700 0v540"/></g>
<g filter="url(#sh)" transform="translate(140 72)"><rect x="20" y="10" width="500" height="390" rx="160" fill="#0a151d" stroke="#38556b" stroke-width="8"/><rect x="60" y="50" width="420" height="310" rx="118" fill="url(#stand)"/><rect x="105" y="88" width="330" height="234" rx="80" fill="#0f231b"/><rect x="146" y="112" width="248" height="186" rx="9" fill="#2c744d" stroke="#cde3cf" stroke-width="3"/><path d="M270 112v186M146 205h248" stroke="#dbe9dc" stroke-width="2" opacity=".8"/><circle cx="270" cy="205" r="34" fill="none" stroke="#dbe9dc" stroke-width="2"/><rect x="146" y="168" width="28" height="74" fill="none" stroke="#dbe9dc" stroke-width="2"/><rect x="366" y="168" width="28" height="74" fill="none" stroke="#dbe9dc" stroke-width="2"/></g>
<g fill="#d6af61"><circle cx="105" cy="100" r="7"/><circle cx="680" cy="94" r="7"/><circle cx="95" cy="430" r="7"/><circle cx="700" cy="430" r="7"/></g><g fill="#afc7d2" opacity=".6"><rect x="42" y="52" width="72" height="18" rx="4"/><rect x="672" y="76" width="86" height="20" rx="4"/><rect x="36" y="445" width="108" height="22" rx="4"/><rect x="652" y="438" width="112" height="22" rx="4"/></g>
</svg>
